<?xml version="1.0" standalone="no"?>
<!DOCTYPE svg PUBLIC "-//W3C//DTD SVG 20010904//EN"
 "http://www.w3.org/TR/2001/REC-SVG-20010904/DTD/svg10.dtd">
<svg version="1.0" xmlns="http://www.w3.org/2000/svg"
 width="231.000000pt" height="225.000000pt" viewBox="0 0 231.000000 225.000000"
 preserveAspectRatio="xMidYMid meet">
<metadata>
Created by potrace 1.15, written by Peter Selinger 2001-2017
</metadata>
<g transform="translate(0.000000,225.000000) scale(0.100000,-0.100000)"
fill="#000000" stroke="none">
<path d="M911 1837 c-64 -32 -80 -91 -80 -297 -1 -203 13 -242 104 -295 53
-31 102 -39 153 -25 70 18 92 45 104 128 11 68 10 74 -10 102 -12 16 -22 36
-22 45 0 12 -13 15 -65 15 l-65 0 0 -54 c0 -59 -7 -86 -21 -86 -15 0 -7 302 9
308 8 2 12 -8 12 -32 0 -31 3 -36 24 -36 13 0 27 -7 30 -16 4 -11 18 -14 53
-12 l48 3 3 66 c3 60 0 70 -30 115 -18 27 -49 57 -68 66 -41 21 -143 24 -179
5z"/>
<path d="M1304 1472 l-50 -287 23 -9 c13 -6 23 -15 23 -22 0 -17 10 -22 57
-30 39 -6 41 -5 51 27 6 19 14 54 17 79 13 82 24 79 25 -7 0 -55 4 -83 11 -83
7 0 22 -11 35 -25 16 -17 34 -25 58 -25 40 0 44 4 73 85 22 62 28 52 14 -22
-6 -33 -5 -43 5 -43 7 0 23 -11 36 -24 25 -25 76 -40 97 -27 8 5 31 112 59
275 37 217 44 271 34 286 -7 11 -12 28 -12 39 0 16 -12 21 -67 30 -38 7 -82
14 -99 17 -31 6 -31 5 -62 -83 -46 -127 -52 -131 -52 -42 0 65 -14 120 -36
148 -5 6 -135 30 -164 31 -25 0 -25 -1 -76 -288z"/>
<path d="M683 1692 c-6 -4 -18 -82 -27 -182 -14 -157 -14 -185 -1 -260 20
-115 20 -118 -12 -122 -17 -2 -28 -9 -28 -18 0 -15 23 -17 74 -5 23 6 23 8 15
68 -11 79 -11 227 0 388 8 123 4 147 -21 131z"/>
</g>
</svg>
